<?xml version="1.0" encoding="UTF-8" standalone="no"?>
<!-- Created with Inkscape (http://www.inkscape.org/) -->

<svg
   width="616"
   height="850"
   viewBox="0 0 162.98333 224.89583"
   version="1.1"
   id="svg1"
   inkscape:version="1.4.2 (f4327f4, 2025-05-13)"
   sodipodi:docname="eyesLaugh.svg"
   xml:space="preserve"
   inkscape:export-filename="../eyesLaugh.png"
   inkscape:export-xdpi="96"
   inkscape:export-ydpi="96"
   xmlns:inkscape="http://www.inkscape.org/namespaces/inkscape"
   xmlns:sodipodi="http://sodipodi.sourceforge.net/DTD/sodipodi-0.dtd"
   xmlns:xlink="http://www.w3.org/1999/xlink"
   xmlns="http://www.w3.org/2000/svg"
   xmlns:svg="http://www.w3.org/2000/svg"><sodipodi:namedview
     id="namedview1"
     pagecolor="#b3b3b3"
     bordercolor="#000000"
     borderopacity="0.25"
     inkscape:showpageshadow="2"
     inkscape:pageopacity="0.0"
     inkscape:pagecheckerboard="0"
     inkscape:deskcolor="#d1d1d1"
     inkscape:document-units="mm"
     inkscape:zoom="1.0396254"
     inkscape:cx="250.09008"
     inkscape:cy="502.58487"
     inkscape:window-width="2560"
     inkscape:window-height="1369"
     inkscape:window-x="1912"
     inkscape:window-y="-8"
     inkscape:window-maximized="1"
     inkscape:current-layer="layer1" /><defs
     id="defs1"><inkscape:path-effect
       effect="roughen"
       id="path-effect17"
       is_visible="true"
       lpeversion="1.2"
       global_randomize="2.5;1"
       displace_x="0.506168;1"
       displace_y="0.617265;1"
       method="size"
       max_segment_size="1.5185"
       segments="2"
       handles="along"
       shift_nodes="true"
       fixed_displacement="false"
       spray_tool_friendly="false" /><filter
       style="color-interpolation-filters:sRGB;"
       inkscape:label="Dark and Glow"
       id="filter25"
       x="-0.51932776"
       y="-0.35031575"
       width="2.1117721"
       height="1.7170719"
       inkscape:menu-tooltip="Darkens the edge with an inner blur and adds a flexible glow"
       inkscape:menu="Shadows and Glows"><feFlood
         result="flood"
         in="SourceGraphic"
         flood-opacity="0.698039"
         flood-color="rgb(0,0,0)"
         id="feFlood24" /><feGaussianBlur
         result="blur"
         in="SourceGraphic"
         stdDeviation="2.3784207"
         id="feGaussianBlur24" /><feOffset
         result="offset"
         in="blur"
         dx="3.000000"
         dy="1.000000"
         id="feOffset24" /><feComposite
         result="comp1"
         operator="out"
         in="flood"
         in2="offset"
         id="feComposite24" /><feComposite
         result="fbSourceGraphic"
         operator="atop"
         in="comp1"
         in2="SourceGraphic"
         id="feComposite25" /><feColorMatrix
         result="fbSourceGraphicAlpha"
         in="fbSourceGraphic"
         values="0 0 0 -1 0 0 0 0 -1 0 0 0 0 -1 0 0 0 0 1 0"
         id="feColorMatrix29" /><feFlood
         id="feFlood29"
         result="flood"
         in="fbSourceGraphic"
         flood-opacity="0.698039"
         flood-color="rgb(0,0,0)" /><feGaussianBlur
         id="feGaussianBlur29"
         result="blur"
         in="fbSourceGraphic"
         stdDeviation="1.500000" /><feOffset
         id="feOffset29"
         result="offset"
         in="blur"
         dx="0.000000"
         dy="0.000000" /><feComposite
         id="feComposite29"
         result="comp1"
         operator="in"
         in="flood"
         in2="offset" /><feComposite
         id="feComposite30"
         result="fbSourceGraphic"
         operator="over"
         in="fbSourceGraphic"
         in2="comp1" /><feColorMatrix
         result="fbSourceGraphicAlpha"
         in="fbSourceGraphic"
         values="0 0 0 -1 0 0 0 0 -1 0 0 0 0 -1 0 0 0 0 1 0"
         id="feColorMatrix33" /><feGaussianBlur
         id="feGaussianBlur33"
         stdDeviation="5"
         result="result6"
         in="fbSourceGraphic" /><feComposite
         id="feComposite33"
         result="result8"
         in="fbSourceGraphic"
         operator="atop"
         in2="result6" /><feComposite
         id="feComposite34"
         result="result9"
         operator="over"
         in2="fbSourceGraphicAlpha"
         in="result8" /><feColorMatrix
         id="feColorMatrix34"
         values="1 0 0 0 0 0 1 0 0 0 0 0 1 0 0 0 0 0 1 0 "
         result="result10" /><feBlend
         id="feBlend34"
         in="result10"
         mode="normal"
         in2="result6" /></filter><filter
       style="color-interpolation-filters:sRGB;"
       inkscape:label="Dark and Glow"
       id="filter7"
       x="-0.90671612"
       y="-0.63044967"
       width="2.8239587"
       height="2.2907326"
       inkscape:menu-tooltip="Darkens the edge with an inner blur and adds a flexible glow"
       inkscape:menu="Shadows and Glows"><feFlood
         result="flood"
         in="SourceGraphic"
         flood-opacity="0.698039"
         flood-color="rgb(0,0,0)"
         id="feFlood2" /><feGaussianBlur
         result="blur"
         in="SourceGraphic"
         stdDeviation="1.561246"
         id="feGaussianBlur2" /><feOffset
         result="offset"
         in="blur"
         dx="3.000000"
         dy="1.000000"
         id="feOffset2" /><feComposite
         result="comp1"
         operator="out"
         in="flood"
         in2="offset"
         id="feComposite2" /><feComposite
         result="fbSourceGraphic"
         operator="atop"
         in="comp1"
         in2="SourceGraphic"
         id="feComposite3" /><feColorMatrix
         result="fbSourceGraphicAlpha"
         in="fbSourceGraphic"
         values="0 0 0 -1 0 0 0 0 -1 0 0 0 0 -1 0 0 0 0 1 0"
         id="feColorMatrix3" /><feFlood
         id="feFlood3"
         result="flood"
         in="fbSourceGraphic"
         flood-opacity="0.698039"
         flood-color="rgb(0,0,0)" /><feGaussianBlur
         id="feGaussianBlur3"
         result="blur"
         in="fbSourceGraphic"
         stdDeviation="1.500000" /><feOffset
         id="feOffset3"
         result="offset"
         in="blur"
         dx="0.000000"
         dy="0.000000" /><feComposite
         id="feComposite4"
         result="comp1"
         operator="in"
         in="flood"
         in2="offset" /><feComposite
         id="feComposite5"
         result="fbSourceGraphic"
         operator="over"
         in="fbSourceGraphic"
         in2="comp1" /><feColorMatrix
         result="fbSourceGraphicAlpha"
         in="fbSourceGraphic"
         values="0 0 0 -1 0 0 0 0 -1 0 0 0 0 -1 0 0 0 0 1 0"
         id="feColorMatrix5" /><feGaussianBlur
         id="feGaussianBlur5"
         stdDeviation="5"
         result="result6"
         in="fbSourceGraphic" /><feComposite
         id="feComposite6"
         result="result8"
         in="fbSourceGraphic"
         operator="atop"
         in2="result6" /><feComposite
         id="feComposite7"
         result="result9"
         operator="over"
         in2="fbSourceGraphicAlpha"
         in="result8" /><feColorMatrix
         id="feColorMatrix7"
         values="1 0 0 0 0 0 1 0 0 0 0 0 1 0 0 0 0 0 1 0 "
         result="result10" /><feBlend
         id="feBlend7"
         in="result10"
         mode="normal"
         in2="result6" /></filter><filter
       style="color-interpolation-filters:sRGB;"
       inkscape:label="Drop Shadow"
       id="filter9"
       x="-0.57122511"
       y="-0.35680466"
       width="2.0501781"
       height="1.7308639"><feFlood
         result="flood"
         in="SourceGraphic"
         flood-opacity="1.000000"
         flood-color="rgb(0,0,0)"
         id="feFlood7" /><feGaussianBlur
         result="blur"
         in="SourceGraphic"
         stdDeviation="1.500000"
         id="feGaussianBlur7" /><feOffset
         result="offset"
         in="blur"
         dx="0.300000"
         dy="0.300000"
         id="feOffset7" /><feComposite
         result="comp1"
         operator="in"
         in="flood"
         in2="offset"
         id="feComposite8" /><feComposite
         result="comp2"
         operator="over"
         in="SourceGraphic"
         in2="comp1"
         id="feComposite9" /></filter><filter
       style="color-interpolation-filters:sRGB;"
       inkscape:label="Drop Shadow"
       id="filter13"
       x="-0.046877751"
       y="-0.03886373"
       width="1.097662"
       height="1.0809661"><feFlood
         result="flood"
         in="SourceGraphic"
         flood-opacity="1.000000"
         flood-color="rgb(0,0,0)"
         id="feFlood12" /><feGaussianBlur
         result="blur"
         in="SourceGraphic"
         stdDeviation="1.500000"
         id="feGaussianBlur12" /><feOffset
         result="offset"
         in="blur"
         dx="0.300000"
         dy="0.300000"
         id="feOffset12" /><feComposite
         result="comp1"
         operator="in"
         in="flood"
         in2="offset"
         id="feComposite12" /><feComposite
         result="comp2"
         operator="over"
         in="SourceGraphic"
         in2="comp1"
         id="feComposite13" /></filter></defs><g
     inkscape:label="Layer 1"
     inkscape:groupmode="layer"
     id="layer1"><image
       width="162.98334"
       height="224.89584"
       preserveAspectRatio="none"
       xlink:href="..%5Ccan.png"
       id="image1"
       x="0"
       y="0"
       style="display:none" /><path
       style="fill:none;stroke:#000000;stroke-width:18.7968;stroke-linecap:square;stroke-dasharray:none;stroke-opacity:1;paint-order:fill markers stroke;filter:url(#filter9)"
       d="M 8.1732584,34.11865 -26.631448,53.329041 3.8791719,79.997583"
       id="path2"
       transform="matrix(0.8718749,0.36127983,-0.36127983,0.8718749,141.26555,51.343275)" /><path
       style="fill:none;stroke:#000000;stroke-width:18.7968;stroke-linecap:square;stroke-dasharray:none;stroke-opacity:1;paint-order:fill markers stroke;filter:url(#filter9)"
       d="M 8.1732584,34.11865 -26.631448,53.329041 3.8791719,79.997583"
       id="path9"
       transform="matrix(-0.9947209,-0.26653467,-0.26653467,0.9947209,49.28123,17.13859)" /><g
       id="g12"
       style="filter:url(#filter13)"
       transform="rotate(-24.093054,11.639901,155.69165)"
       inkscape:path-effect="#path-effect17"><path
         sodipodi:type="star"
         style="fill:#ffffff;fill-opacity:1;stroke:none;stroke-width:1.32292;stroke-linecap:square;stroke-dasharray:none;stroke-opacity:1;paint-order:fill markers stroke"
         id="path10"
         inkscape:flatsided="false"
         sodipodi:sides="3"
         sodipodi:cx="36.393318"
         sodipodi:cy="151.42674"
         sodipodi:r1="32.823429"
         sodipodi:r2="16.411715"
         sodipodi:arg1="0.85123693"
         sodipodi:arg2="1.8984345"
         inkscape:rounded="0"
         inkscape:randomized="0"
         d="m 58.043332,176.15757 -0.650366,0.55214 -1.760557,-0.27633 -0.217942,0.55139 -1.025099,-0.0323 -1.200785,-0.48469 -1.246981,-0.64717 -0.458683,0.68352 -1.641832,-0.78278 -0.76712,-0.36148 -1.238552,-0.68012 -0.908088,-0.41719 -1.05375,-0.45778 -0.276252,1.80139 -1.081854,0.36769 -1.601107,-0.703 -0.903037,-0.66476 -1.100527,-0.79277 -1.127311,-0.82558 -1.567277,0.10588 0.364776,2.4301 -1.861476,-2.11277 -1.105968,-1.30239 -1.604773,-1.53608 -0.529972,-0.4682 -1.178514,-1.44733 -0.999059,-1.15506 -0.824507,0.1321 -0.787128,1.01698 -1.143495,-0.3141 -1.099469,-0.42218 -0.48638,1.53599 -1.894064,-0.80094 -0.73478,-0.59646 -1.235853,-0.93012 -1.145462,-0.004 -0.170947,0.81519 -1.606811,-0.9818 -0.01911,2.35949 -1.747588,-1.35585 -1.252247,-0.32188 -0.542978,-0.0547 -1.671875,-1.51444 -0.609159,-0.23977 -1.19692,-0.87374 -0.380723,1.42294 -1.400396,-0.81819 -0.817066,0.36178 -1.29581,-0.68641 -0.7818906,0.7586 -1.6750899,-2.48953 -1.5685911,-3.43639 -1.6389181,-1.99755 0.5981213,-0.60401 2.0834002,2.76618 0.7075744,-0.61208 0.5407238,-1.26483 0.9955903,-0.91059 0.4296984,-0.88822 1.0972833,-1.16609 0.468679,-0.77321 1.158995,-1.08451 1.146606,0.0171 0.434775,-0.97679 0.871738,-1.25565 0.653799,-1.26313 0.602281,-1.43161 0.540425,-1.08737 1.843621,0.78938 0.558281,-0.89642 1.189455,-0.0595 0.273536,-0.62032 0.60086,-1.78708 1.509777,4.4e-4 0.846003,-0.92956 0.478257,-0.94476 1.014489,-1.29626 1.424165,1.58066 -0.110775,-4.3537 0.615686,-0.92634 1.238885,0.0453 0.99189,-0.0382 0.171881,-0.98174 1.405791,-0.63298 0.933752,-0.30933 0.739352,-0.69621 0.78651,-0.76651 0.698782,-0.72566 1.534198,0.8183 0.907073,0.41336 0.205037,-1.14084 1.862903,1.30197 0.809332,-0.73006 0.712919,-1.18123 0.146633,-1.5024 1.231736,-1.28799 0.202013,-1.53292 1.105202,-1.21958 1.587147,2.20238 1.039183,-0.6763 0.04653,-1.29636 0.434706,-2.7922 0.658741,-2.16008 0.520518,-1.56144 0.684529,-1.54813 0.778809,3.9585 0.410606,4.16333 0.543071,4.2797 0.812014,5.10613 0.643302,4.47345 1.34489,3.58121 0.988045,2.32593 0.884052,4.15591 0.977547,4.46559 0.349873,2.93367 0.872146,4.44293 1.455147,5.86327 0.476897,2.41769 z"
         transform="matrix(-1.4551444,-0.49188771,0.36580164,-0.23406696,33.860198,197.41733)"
         inkscape:transform-center-x="36.850477"
         inkscape:transform-center-y="-15.102443" /><path
         sodipodi:type="star"
         style="fill:#ffffff;fill-opacity:1;stroke:none;stroke-width:1.32292;stroke-linecap:square;stroke-dasharray:none;stroke-opacity:1;paint-order:fill markers stroke"
         id="path11"
         inkscape:flatsided="false"
         sodipodi:sides="3"
         sodipodi:cx="36.393318"
         sodipodi:cy="151.42674"
         sodipodi:r1="32.823429"
         sodipodi:r2="16.411715"
         sodipodi:arg1="0.85123693"
         sodipodi:arg2="1.8984345"
         inkscape:rounded="0"
         inkscape:randomized="0"
         d="m 57.994441,176.4588 -1.467626,-1.47866 -1.000769,-0.3156 -1.182843,-0.16328 -1.333914,-0.77064 -1.056168,0.2313 -1.156211,0.20724 -1.148867,0.55459 -1.317878,-0.56769 -1.344766,1.12875 -0.98593,-0.17191 -1.380217,-1.0203 -1.174893,-0.68873 -1.223857,-0.65872 -1.173819,-0.37896 -1.326509,-0.82729 -1.33319,-0.91223 -1.477196,-1.43299 -0.883489,-0.26896 -1.255027,-0.6026 -1.427312,-0.99326 -1.085281,-0.38233 -1.223632,1.30366 -1.352264,-0.74838 -0.949363,0.56313 -1.73207,-1.66659 -0.795762,1.37285 -1.180758,-0.47029 -1.226476,-0.56017 -1.227134,-0.46071 -1.225176,-0.58226 -1.146725,-0.21061 -1.270554,-0.55641 -2.350726,-2.35706 -0.180854,-0.0473 -1.450718,-1.22259 -0.979049,-0.0121 -1.158956,0.42695 -1.32091,-0.81632 -1.375608,-0.9355 -1.3945,-1.04678 -1.0670178,-0.76382 -1.1109639,0.69575 -1.1112564,-0.3755 -1.129603,-0.11085 0.959913,0.67438 1.1029386,-1.85481 0.9481548,-0.99738 0.9619948,-0.55923 1.0629842,-0.33144 0.9072437,0.45964 1.475581,-0.17474 1.240613,-0.66948 1.105561,0.002 0.916665,-2.10172 0.779639,-0.12502 0.687183,-2.76901 0.758607,-1.75125 0.893665,-0.75959 0.90519,-0.0646 1.131342,-1.72644 0.95966,-0.85948 0.134398,-2.80959 1.299946,-0.88054 1.109335,-0.19597 1.058308,-0.46352 0.721054,-1.88306 1.027187,-0.57541 0.977299,-0.89222 1.073472,-0.17739 0.922309,-0.17864 0.844967,-2.06087 1.099405,-0.71008 1.116653,-0.13578 0.98852,-0.55327 1.193056,0.21716 0.963021,-1.47773 0.67145,-1.53175 0.564678,-1.85211 1.205661,-1.13877 1.025257,-0.22095 1.094978,-0.61239 0.247056,-2.13922 1.476266,-0.4871 1.020213,-0.78234 0.52192,-1.98339 1.035982,-0.94315 1.388385,0.0832 1.056298,-0.12106 0.442553,2.36204 0.653761,3.29753 0.552444,2.84896 0.539805,2.791 0.555893,2.89922 0.680661,3.70578 0.04903,1.2065 0.779133,3.31786 0.692984,2.99466 0.445257,1.96144 0.564502,2.82356 0.607355,3.0424 0.297006,2.07841 0.739059,3.65516 0.557072,2.69175 0.452487,2.37538 0.68945,3.28244 0.651871,3.09274 0.541579,2.57985 z"
         transform="matrix(-0.76733089,1.0243152,0.49899462,0.15804595,6.8956314,132.97203)"
         inkscape:transform-center-x="25.082241"
         inkscape:transform-center-y="28.345696" /><path
         sodipodi:type="star"
         style="fill:#ffffff;fill-opacity:1;stroke:none;stroke-width:1.32292;stroke-linecap:square;stroke-dasharray:none;stroke-opacity:1;paint-order:fill markers stroke"
         id="path12"
         inkscape:flatsided="false"
         sodipodi:sides="3"
         sodipodi:cx="36.393318"
         sodipodi:cy="151.42674"
         sodipodi:r1="32.823429"
         sodipodi:r2="16.411715"
         sodipodi:arg1="0.85123693"
         sodipodi:arg2="1.8984345"
         inkscape:rounded="0"
         inkscape:randomized="0"
         d="m 58.057502,176.18924 -1.858556,-0.70731 -1.091524,-0.44801 -1.195377,-0.80969 -0.845573,-0.33453 -1.103823,0.25646 -1.90659,-0.97763 -0.408115,1.16336 -1.737628,-1.03461 -1.540108,-0.51323 -0.67685,-0.38816 -1.305195,-0.50988 -1.045071,-0.39777 -1.129363,0.5393 -2.323132,-0.84642 -0.07755,0.36418 -1.751759,-1.1876 -0.791695,-0.25587 -1.280209,-0.63014 -1.355328,-0.80166 -1.147122,-0.57665 -1.887412,-0.71072 -0.320338,0.13481 -1.215989,-0.40062 -1.196391,-0.0196 -1.180255,-0.039 -1.282284,-0.29778 -1.364445,-0.56333 -1.119732,-0.40735 -1.556251,-0.63136 -1.577652,-0.83963 -0.53136,0.0371 -1.188951,-0.2266 -1.954054,-0.93994 -1.05109,-0.57256 -1.120625,-0.72255 -1.619552,-0.65697 -0.403619,0.0511 -1.613196,-0.96078 -0.967404,-0.36751 -1.7443703,-0.6352 -0.7859263,-0.27436 -1.7213251,-0.92205 -0.4670425,0.49793 -1.3412852,-0.64105 0.4503749,-1.38121 1.1020058,-1.2027 1.1389331,0.18093 1.3014936,-0.57352 1.0525951,-0.38614 1.0570809,-1.04559 0.510197,-1.20742 1.302042,-0.80849 1.226026,0.49674 1.410467,0.17287 0.93274,-1.48828 1.011852,-1.12244 0.424351,-1.66556 1.159557,0.20218 0.972515,-1.79067 0.32238,-1.47054 0.768328,-1.75414 1.242992,-0.77553 0.479895,-1.23334 1.67265,0.20574 0.826613,-1.19949 0.980667,-0.95395 0.834651,-1.09777 0.998965,-0.884 1.015943,-0.71505 0.849527,-1.04611 0.891939,-0.95814 0.563166,-1.29006 1.037705,-1.15074 1.218904,-0.6681 1.212891,-0.15723 1.16629,-0.21754 0.907612,-0.99498 1.01156,-0.90839 1.065676,-0.33098 1.174487,-0.58558 0.509504,-1.47243 1.264365,-0.66727 0.8655,-1.00581 1.216685,-0.1763 0.436134,-1.60833 1.489574,0.17517 0.561668,-2.17927 1.031325,-0.91596 0.731493,3.56903 0.17972,0.84969 0.453304,2.62075 0.272837,1.52947 0.540989,2.40669 0.570732,2.36104 0.165348,1.49452 0.436263,2.2852 0.459521,2.22934 -0.0497,1.63083 1.024923,3.70071 0.132798,1.00773 0.849648,3.86241 0.284971,1.79937 0.09917,2.08445 0.531534,2.33362 0.482414,2.07 0.678754,3.35599 0.126348,0.5537 0.370004,1.87514 0.469943,2.12284 0.223545,1.85168 0.732315,2.8383 0.191004,1.18667 -0.263673,2.00681 z"
         transform="matrix(-1.2288035,0.12824998,0.09240034,-0.70312248,69.763367,270.76345)"
         inkscape:transform-center-x="31.347116"
         inkscape:transform-center-y="12.65105" /></g></g></svg>
